# xmcd
#
# Track frame offsets:
#	150
#	18698
#	35620
#	51067
#	69266
#	92091
#	107191
#	124638
#	144397
#	165098
#	179955
#	196042
#
# Disc length: 2844 seconds
#
# Revision: 0
# Processed by: cddbd v1.4PL0 Copyright (c) Steve Scherf et al.
# Submitted via: audiograbber 1.80.04
#
DISCID=9f0b1a0c
DTITLE=Charlies Landsborough - With You In Mind
DYEAR=1996
DGENRE=Country
TTITLE0=No Time At All
TTITLE1=How Do You Do Those Things
TTITLE2=Part Of Me
TTITLE3=Shine Your Light
TTITLE4=The Ilse Of Innisfree
TTITLE5=Down To Earth
TTITLE6=I Will Love You All My Life
TTITLE7=Heaven Knows
TTITLE8=If Only
TTITLE9=I Say You
TTITLE10=Irish Waltz
TTITLE11=You Stand All Alone
EXTD=
EXTT0=
EXTT1=
EXTT2=
EXTT3=
EXTT4=
EXTT5=
EXTT6=
EXTT7=
EXTT8=
EXTT9=
EXTT10=
EXTT11=
PLAYORDER=
